<?xml version="1.0" standalone="no"?>
<!DOCTYPE svg PUBLIC "-//W3C//DTD SVG 20010904//EN"
 "http://www.w3.org/TR/2001/REC-SVG-20010904/DTD/svg10.dtd">
<svg version="1.0" xmlns="http://www.w3.org/2000/svg"
 width="300.000000pt" height="300.000000pt" viewBox="0 0 300.000000 300.000000"
 preserveAspectRatio="xMidYMid meet">
<metadata>
Created by potrace 1.10, written by Peter Selinger 2001-2011
</metadata>
<g transform="translate(0.000000,300.000000) scale(0.100000,-0.100000)"
fill="#000000" stroke="none">
<path d="M1463 2238 c-15 -29 -49 -97 -75 -150 -27 -54 -51 -98 -54 -98 -10 0
-69 33 -113 63 -42 29 -43 29 -36 6 7 -21 17 -60 24 -94 7 -33 13 -63 41 -176
16 -69 30 -139 30 -156 0 -16 3 -33 7 -37 15 -15 12 -43 -5 -43 -49 0 -64 -5
-94 -32 -18 -16 -30 -33 -25 -37 4 -4 23 7 41 26 33 31 41 33 76 11 8 -5 60
-26 115 -45 l100 -36 140 143 c173 178 355 372 355 381 0 3 -17 6 -37 6 -21 0
-51 7 -66 15 -19 10 -27 11 -25 3 3 -7 19 -19 36 -27 17 -9 32 -19 32 -23 0
-4 -39 -52 -87 -106 -49 -55 -105 -120 -126 -145 -21 -26 -45 -47 -54 -47 -13
0 -11 6 9 28 14 15 30 36 36 47 9 18 92 343 92 361 0 4 -8 0 -17 -8 -10 -8
-44 -32 -76 -52 l-58 -36 -75 155 c-42 85 -78 155 -80 155 -2 0 -16 -24 -31
-52z m27 -113 c0 -108 -3 -135 -14 -135 -26 0 -40 -33 -46 -109 -4 -61 -8 -75
-20 -72 -48 13 -69 12 -89 -5 -11 -10 -21 -26 -21 -36 0 -28 -19 -21 -26 10
-3 15 -10 38 -15 52 -8 22 -20 72 -36 153 -6 32 7 35 51 12 43 -23 72 -19 93
13 18 26 60 117 99 210 9 23 19 42 21 42 1 0 3 -61 3 -135z m85 -56 c54 -109
78 -119 145 -62 17 14 33 23 36 21 2 -3 -11 -28 -31 -57 -19 -28 -31 -51 -25
-51 5 0 10 5 10 10 0 6 5 10 10 10 13 0 13 -31 -1 -86 -13 -50 -23 -54 -54
-20 -17 19 -20 28 -11 37 6 8 1 6 -10 -4 -12 -10 -35 -21 -51 -26 l-30 -9 0
58 c-1 55 -14 98 -36 112 -6 3 -11 35 -13 69 -4 106 7 105 61 -2z m-61 -95
c14 -5 16 -34 16 -213 l0 -207 -29 -22 c-16 -11 -31 -18 -35 -15 -8 8 -8 357
0 417 7 46 15 53 48 40z m136 -225 c0 -64 -3 -73 -25 -91 -28 -22 -32 -38 -10
-38 12 0 11 -6 -5 -34 -23 -38 -57 -72 -65 -64 -3 3 6 24 21 46 25 38 26 47
25 146 l-2 106 30 0 31 0 0 -71z m-250 -84 c0 -114 -7 -145 -25 -115 -3 6 -15
10 -26 10 -18 0 -19 8 -19 115 l0 115 35 0 35 0 0 -125z"/>
<path d="M2017 2090 c-48 -21 -90 -39 -92 -39 -17 -2 -68 -35 -59 -38 7 -2 69
19 140 47 70 28 130 47 133 43 10 -13 1 -263 -10 -263 -20 0 -49 41 -49 70 0
35 -13 39 -34 9 -30 -44 -537 -549 -550 -549 -8 0 -57 17 -110 38 l-95 39 -30
-38 c-17 -21 -93 -95 -168 -165 -76 -70 -140 -132 -142 -137 -2 -5 11 -1 28 7
32 17 78 59 98 92 12 19 13 19 30 -2 14 -16 27 -20 56 -16 21 2 74 -1 120 -7
158 -22 160 -24 72 -56 -43 -15 -246 -117 -297 -149 -34 -21 -28 2 12 45 45
48 96 127 87 135 -3 3 -13 -6 -24 -21 -29 -42 -109 -147 -138 -182 -29 -35
-24 -40 22 -22 15 6 104 33 197 60 150 43 174 53 210 86 22 21 42 39 44 40 6
3 -149 147 -184 170 -52 36 -51 27 5 -25 68 -64 67 -75 -6 -67 -157 17 -162
22 -84 94 26 25 54 56 60 68 12 24 26 24 126 -3 45 -12 97 -18 134 -15 19 1
222 202 215 213 -3 5 -1 7 4 6 5 -2 43 29 84 67 88 82 100 89 193 105 39 7 97
21 129 31 l59 18 -54 -55 c-30 -31 -119 -110 -199 -177 -201 -169 -324 -279
-326 -293 -1 -7 -17 -31 -35 -53 -18 -23 -30 -43 -28 -46 3 -2 32 2 64 10 33
7 74 16 90 18 17 3 4 4 -27 4 -62 -2 -63 -1 -53 41 6 31 24 49 196 198 340
294 354 303 310 210 -25 -53 -40 -111 -32 -123 3 -5 18 -18 34 -30 l27 -21
-52 -47 c-29 -26 -64 -55 -78 -63 -14 -9 -57 -42 -96 -74 -55 -45 -83 -61
-130 -71 l-59 -14 60 -4 60 -4 100 78 c55 43 140 110 188 149 l88 72 -63 16
c-35 8 -62 20 -61 27 1 6 16 42 34 80 32 70 79 193 73 193 -1 0 -58 -14 -126
-31 -67 -17 -132 -31 -143 -32 -11 0 -38 -13 -59 -29 -73 -52 -59 -29 44 72
l103 101 27 -26 c14 -14 33 -25 42 -25 33 0 43 31 46 144 5 162 -13 176 -151
116z m-617 -712 c11 -7 8 -8 -10 -4 -14 3 -42 6 -63 6 -25 0 -36 4 -32 11 8
12 80 3 105 -13z m-10 -283 c-18 -19 -95 -56 -95 -46 0 1 -12 -2 -27 -8 -16
-6 -28 -7 -28 -2 0 11 131 80 154 80 18 1 18 -1 -4 -24z"/>
<path d="M1060 1780 c0 -37 -2 -40 -26 -40 -15 0 -82 14 -151 30 -68 17 -128
30 -132 30 -9 0 32 -112 79 -217 16 -35 26 -64 22 -67 -4 -2 -27 -6 -52 -10
-81 -12 -80 -16 56 -127 l126 -104 85 84 c46 45 83 84 81 86 -2 1 -46 38 -98
81 -52 43 -111 92 -130 110 -19 17 -61 54 -93 83 -31 28 -50 51 -42 51 8 0 48
-9 88 -19 39 -11 95 -23 123 -26 44 -6 55 -4 72 13 l20 20 89 -89 c49 -49 95
-89 102 -89 8 0 0 13 -15 30 -16 16 -65 70 -109 119 -44 49 -83 90 -87 90 -5
1 -8 -17 -8 -39z m-86 -205 c75 -65 136 -123 136 -128 0 -5 -14 -26 -32 -46
-21 -24 -39 -35 -52 -33 -48 8 -174 56 -210 80 l-38 26 28 9 c35 11 64 35 64
53 0 7 -13 42 -30 79 -16 37 -30 71 -30 77 0 22 36 -3 164 -117z m31 -216 c6
-6 3 -16 -8 -26 -16 -17 -19 -16 -50 15 l-32 33 40 -7 c22 -3 44 -10 50 -15z"/>
<path d="M1075 1336 c-93 -95 -171 -179 -173 -187 -1 -9 6 -24 18 -34 23 -20
26 -14 8 15 -11 17 4 36 160 193 95 96 172 177 172 181 0 17 -28 -8 -185 -168z"/>
<path d="M1596 1325 c-19 -28 -37 -51 -77 -98 l-25 -30 -49 59 c-27 33 -53 64
-58 69 -4 6 4 -17 19 -50 15 -33 40 -74 56 -91 l29 -31 33 33 c18 18 33 39 33
47 0 8 15 35 33 61 18 25 31 48 28 51 -3 3 -13 -6 -22 -20z"/>
<path d="M1833 1136 c4 -25 23 -60 52 -98 25 -32 45 -61 45 -64 0 -3 -17 4
-37 16 -194 115 -321 168 -356 148 -25 -14 -21 -30 17 -67 30 -29 59 -40 228
-88 106 -29 202 -56 212 -60 13 -4 2 16 -33 60 -28 37 -70 95 -92 129 l-42 63
6 -39z m-191 -35 c92 -39 138 -64 138 -72 0 -13 -34 -11 -48 3 -7 7 -12 9 -12
6 0 -11 -104 23 -122 40 -19 16 -24 42 -9 42 5 0 29 -8 53 -19z"/>
<path d="M1475 1038 c-6 -18 -34 -361 -30 -368 2 -3 24 -4 50 -2 l47 4 -5 42
c-3 23 -9 102 -13 176 -6 127 -14 160 -36 160 -5 0 -11 -6 -13 -12z"/>
</g>
</svg>
